<svg width="100" height="100" viewBox="0 0 100 100" fill="none" xmlns="http://www.w3.org/2000/svg">
<path d="M75 50C75 63.2548 63.8071 74 50 74C36.1929 74 25 63.2548 25 50C25 36.7452 36.1929 26 50 26C63.8071 26 75 36.7452 75 50Z" fill="url(#paint0_linear_11_4)"/>
<path opacity="0.9" d="M40.3583 48.0872C46.7467 48.2883 51.7968 53.0357 51.6376 58.6917C51.6346 58.7987 51.6287 58.9058 51.622 59.012C52.8351 58.5961 54.1404 58.3703 55.4999 58.3743C61.8914 58.3934 67.0574 63.4555 67.039 69.6799C67.0202 75.9044 61.824 80.9353 55.4326 80.9163C53.2839 80.9098 51.2749 80.3311 49.5536 79.3323C47.3037 81.5657 44.2824 82.9319 40.9609 82.9221C37.5083 82.9118 34.3861 81.4194 32.1259 79.0139C30.2087 80.1689 27.9515 80.8345 25.5361 80.8274C18.612 80.8067 13.0151 75.2847 13.0351 68.4944C13.0554 61.704 18.6852 56.2161 25.6093 56.2366C26.6559 56.2397 27.6724 56.3688 28.6435 56.6087C29.536 51.6188 34.4903 47.9027 40.3583 48.0872Z" fill="url(#paint1_linear_11_4)"/>
<defs>
<linearGradient id="paint0_linear_11_4" x1="25" y1="29.2315" x2="74.7901" y2="71.0186" gradientUnits="userSpaceOnUse">
<stop stop-color="#FFEB3B" stop-opacity="0.5"/>
<stop offset="1" stop-color="#FFB300"/>
</linearGradient>
<linearGradient id="paint1_linear_11_4" x1="40.0997" y1="48.0812" x2="39.9958" y2="82.9195" gradientUnits="userSpaceOnUse">
<stop stop-color="white"/>
<stop offset="1" stop-color="#E3F2FD"/>
</linearGradient>
</defs>
</svg>
