<svg width="100" height="100" viewBox="0 0 100 100" fill="none" xmlns="http://www.w3.org/2000/svg">
<path d="M75 50C75 63.2548 63.8071 74 50 74C36.1929 74 25 63.2548 25 50C25 36.7452 36.1929 26 50 26C63.8071 26 75 36.7452 75 50Z" fill="url(#paint0_linear_29_228)"/>
<path opacity="0.9" fill-rule="evenodd" clip-rule="evenodd" d="M40.3583 48.0862C46.7468 48.2873 51.797 53.0365 51.6376 58.6926C51.6346 58.7997 51.6287 58.9068 51.622 59.0129C52.8352 58.5971 54.1403 58.3703 55.4999 58.3743C61.8914 58.3934 67.0574 63.4554 67.039 69.6799C67.0202 75.9044 61.824 80.9343 55.4325 80.9153C53.2838 80.9088 51.275 80.3302 49.5536 79.3313C47.3037 81.5648 44.2825 82.9319 40.9609 82.9221C37.5081 82.9118 34.3861 81.4187 32.1259 79.0129C30.2087 80.168 27.9516 80.8335 25.5361 80.8264C18.6121 80.8057 13.0152 75.2846 13.0351 68.4944C13.0555 61.7041 18.6852 56.2151 25.6093 56.2356C26.6558 56.2388 27.6724 56.3678 28.6435 56.6077C29.5365 51.6183 34.4907 47.9018 40.3583 48.0862Z" fill="url(#paint1_linear_29_228)"/>
<defs>
<linearGradient id="paint0_linear_29_228" x1="25" y1="29.2315" x2="74.7901" y2="71.0186" gradientUnits="userSpaceOnUse">
<stop stop-color="#E3B5F8"/>
<stop offset="1" stop-color="#060333" stop-opacity="0.5"/>
</linearGradient>
<linearGradient id="paint1_linear_29_228" x1="40.0997" y1="48.0805" x2="39.9958" y2="82.9197" gradientUnits="userSpaceOnUse">
<stop stop-color="white"/>
<stop offset="1" stop-color="#E3F2FD"/>
</linearGradient>
</defs>
</svg>
