<svg width="100" height="100" viewBox="0 0 100 100" fill="none" xmlns="http://www.w3.org/2000/svg">
<path d="M75 50C75 63.2548 63.8071 74 50 74C36.1929 74 25 63.2548 25 50C25 36.7452 36.1929 26 50 26C63.8071 26 75 36.7452 75 50Z" fill="url(#paint0_linear_13_30)"/>
<path opacity="0.9" d="M40.3583 48.0872C46.7467 48.2883 51.7968 53.0357 51.6376 58.6917C51.6346 58.7987 51.6287 58.9058 51.622 59.012C52.8351 58.5961 54.1404 58.3703 55.4999 58.3743C61.8914 58.3934 67.0574 63.4555 67.039 69.6799C67.0202 75.9044 61.824 80.9353 55.4326 80.9163C53.2839 80.9098 51.2749 80.3311 49.5536 79.3323C47.3037 81.5657 44.2824 82.9319 40.9609 82.9221C37.5083 82.9118 34.3861 81.4194 32.1259 79.0139C30.2087 80.1689 27.9515 80.8345 25.5361 80.8274C18.612 80.8067 13.0151 75.2847 13.0351 68.4944C13.0554 61.704 18.6852 56.2161 25.6093 56.2366C26.6559 56.2397 27.6724 56.3688 28.6435 56.6087C29.536 51.6188 34.4903 47.9027 40.3583 48.0872Z" fill="url(#paint1_linear_13_30)"/>
<path opacity="0.9" fill-rule="evenodd" clip-rule="evenodd" d="M62.5298 30.2655C67.7643 30.4117 71.8877 32.6591 71.7399 35.2854C71.7371 35.3355 71.7294 35.385 71.7235 35.4347C72.7196 35.2512 73.7913 35.1562 74.9065 35.1694C80.1437 35.2312 84.3617 37.6255 84.3276 40.517C84.2935 43.4085 80.0204 45.7028 74.7832 45.6413C73.0226 45.6206 71.3773 45.3342 69.9699 44.8561C68.1195 45.8747 65.6387 46.4849 62.9174 46.4528C60.0881 46.4194 57.5338 45.7012 55.6891 44.5649C54.1149 45.0853 52.2636 45.3761 50.2849 45.3529C44.6113 45.2861 40.0418 42.6746 40.0785 39.5204C40.1156 36.3659 44.7455 33.8621 50.4194 33.9289C51.2771 33.939 52.1094 34.0086 52.9046 34.1281C53.6509 31.8172 57.7217 30.1313 62.5298 30.2655Z" fill="url(#paint2_linear_13_30)"/>
<defs>
<linearGradient id="paint0_linear_13_30" x1="25" y1="29.2315" x2="74.7901" y2="71.0186" gradientUnits="userSpaceOnUse">
<stop stop-color="#FFEB3B" stop-opacity="0.5"/>
<stop offset="1" stop-color="#FFB300"/>
</linearGradient>
<linearGradient id="paint1_linear_13_30" x1="40.0997" y1="48.0812" x2="39.9958" y2="82.9195" gradientUnits="userSpaceOnUse">
<stop stop-color="white"/>
<stop offset="1" stop-color="#E3F2FD"/>
</linearGradient>
<linearGradient id="paint2_linear_13_30" x1="62.3179" y1="30.2605" x2="62.1274" y2="46.4435" gradientUnits="userSpaceOnUse">
<stop stop-color="white"/>
<stop offset="1" stop-color="#E3F2FD"/>
</linearGradient>
</defs>
</svg>
