<svg width="100" height="100" viewBox="0 0 100 100" fill="none" xmlns="http://www.w3.org/2000/svg">
<path opacity="0.95" fill-rule="evenodd" clip-rule="evenodd" d="M34.5399 37.3999C35.7132 30.2083 42.2163 24.8512 49.914 25.1147C58.2948 25.402 64.9181 32.243 64.7069 40.395C64.7029 40.5488 64.6942 40.7024 64.6855 40.8549C66.2772 40.2551 67.9906 39.9297 69.7743 39.935C78.1589 39.9603 84.9337 47.2541 84.9071 56.2251C84.8802 65.1961 78.0622 72.448 69.6776 72.4233C66.8599 72.4149 64.2239 71.5857 61.9667 70.1479C59.0143 73.3672 55.0475 75.3337 50.6903 75.3208C46.1615 75.3071 42.0664 73.1584 39.1024 69.6928C36.5868 71.3583 33.6248 72.3165 30.456 72.3071C21.3725 72.2798 14.0322 64.3233 14.0614 54.5366C14.0909 44.7502 21.4782 36.839 30.5614 36.8657C31.9335 36.8698 33.2668 37.055 34.5399 37.3999Z" fill="url(#paint0_linear_13_37)"/>
<defs>
<linearGradient id="paint0_linear_13_37" x1="43.9998" y1="31.5008" x2="49.9996" y2="71" gradientUnits="userSpaceOnUse">
<stop stop-color="#E3F2FD"/>
<stop offset="1" stop-color="#E3F2FD"/>
</linearGradient>
</defs>
</svg>
