<svg width="100" height="100" viewBox="0 0 100 100" fill="none" xmlns="http://www.w3.org/2000/svg">
<path opacity="0.95" fill-rule="evenodd" clip-rule="evenodd" d="M49.914 25.1137C58.2946 25.401 64.9179 32.2432 64.7069 40.395C64.7029 40.5484 64.6942 40.7019 64.6855 40.854C66.2771 40.2542 67.9907 39.9297 69.7743 39.935C78.1587 39.9603 84.9333 47.2535 84.9071 56.2241C84.8804 65.1952 78.0623 72.448 69.6776 72.4233C66.8598 72.4149 64.2239 71.5848 61.9667 70.1469C59.0143 73.3662 55.0475 75.3337 50.6903 75.3208C46.1615 75.3071 42.0664 73.1574 39.1024 69.6919C36.5868 71.3573 33.6248 72.3155 30.456 72.3061C21.3725 72.2787 14.0323 64.3232 14.0614 54.5366C14.0909 44.7503 21.4783 36.8381 30.5614 36.8647C31.9335 36.8688 33.2668 37.054 34.5399 37.3989C35.7135 30.2078 42.2167 24.8502 49.914 25.1137Z" fill="url(#paint0_linear_29_181)"/>
<defs>
<linearGradient id="paint0_linear_29_181" x1="43.9998" y1="31.4999" x2="49.9998" y2="70.9999" gradientUnits="userSpaceOnUse">
<stop stop-color="#E3F2FD"/>
<stop offset="1" stop-color="#E3F2FD"/>
</linearGradient>
</defs>
</svg>
