<svg width="100" height="100" viewBox="0 0 100 100" fill="none" xmlns="http://www.w3.org/2000/svg">
<path d="M48.3986 65.3582C49.4851 65.5559 49.7085 69.3361 49.4337 70.8484C49.1588 72.3603 48.0546 73.4258 46.9679 73.2283C45.8812 73.0307 45.2234 71.6454 45.4982 70.1336C45.7731 68.6217 47.3118 65.1613 48.3986 65.3582ZM35.3986 61.3582C36.4851 61.5559 36.7085 65.3361 36.4337 66.8484C36.1588 68.3603 35.0546 69.4258 33.9679 69.2283C32.8812 69.0307 32.2234 67.6454 32.4982 66.1336C32.7731 64.6217 34.3118 61.1613 35.3986 61.3582ZM61.3986 60.3582C62.4851 60.5559 62.7085 64.3361 62.4337 65.8484C62.1588 67.3603 61.0546 68.4258 59.9679 68.2283C58.8812 68.0307 58.2234 66.6454 58.4982 65.1336C58.7731 63.6217 60.3118 60.1613 61.3986 60.3582Z" fill="url(#paint0_linear_13_70)"/>
<path opacity="0.95" fill-rule="evenodd" clip-rule="evenodd" d="M50.346 19.9184C57.4294 20.1473 63.0282 25.5683 62.851 32.027C62.8476 32.1488 62.8407 32.2704 62.8333 32.3912C64.1784 31.9163 65.6259 31.6593 67.1333 31.6638C74.22 31.685 79.9479 37.4644 79.9269 44.5722C79.9057 51.6801 74.1434 57.4251 67.0566 57.4039C64.6753 57.3968 62.4483 56.7387 60.5404 55.5993C58.0456 58.1498 54.6933 59.7078 51.0106 59.6969C47.1826 59.6855 43.721 57.9815 41.2153 55.2351C39.0893 56.5543 36.5866 57.313 33.9083 57.3051C26.2309 57.2822 20.0257 50.9778 20.0489 43.2236C20.0721 35.4696 26.3148 29.2022 33.992 29.2251C35.1515 29.2286 36.2772 29.3759 37.3531 29.6492C38.3435 23.9514 43.84 19.7083 50.346 19.9184Z" fill="url(#paint1_linear_13_70)"/>
<defs>
<linearGradient id="paint0_linear_13_70" x1="48.3989" y1="65.3579" x2="46.968" y2="73.2283" gradientUnits="userSpaceOnUse">
<stop stop-color="#1976D2"/>
<stop offset="1" stop-color="#90CAF9"/>
</linearGradient>
<linearGradient id="paint1_linear_13_70" x1="45.3485" y1="24.9767" x2="49.8116" y2="56.3605" gradientUnits="userSpaceOnUse">
<stop stop-color="#E3F2FD"/>
<stop offset="1" stop-color="#E3F2FD"/>
</linearGradient>
</defs>
</svg>
