<svg width="100" height="100" viewBox="0 0 100 100" fill="none" xmlns="http://www.w3.org/2000/svg">
<path fill-rule="evenodd" clip-rule="evenodd" d="M48.3986 65.3582C49.4852 65.556 49.7086 69.3374 49.4337 70.8494C49.1587 72.361 48.0544 73.4266 46.9679 73.2293C45.8812 73.0317 45.2234 71.6454 45.4982 70.1336C45.7731 68.6217 47.3118 65.1613 48.3986 65.3582ZM35.3986 61.3582C36.4852 61.556 36.7086 65.3374 36.4337 66.8494C36.1587 68.361 35.0544 69.4266 33.9679 69.2293C32.8812 69.0317 32.2234 67.6454 32.4982 66.1336C32.7731 64.6217 34.3118 61.1613 35.3986 61.3582ZM61.3986 60.3582C62.4852 60.556 62.7086 64.3374 62.4337 65.8494C62.1587 67.361 61.0544 68.4266 59.9679 68.2293C58.8812 68.0317 58.2234 66.6454 58.4982 65.1336C58.7731 63.6217 60.3118 60.1613 61.3986 60.3582Z" fill="url(#paint0_linear_29_194)"/>
<path opacity="0.95" fill-rule="evenodd" clip-rule="evenodd" d="M50.346 19.9181C57.4296 20.147 63.0284 25.5688 62.851 32.0277C62.8476 32.1493 62.8407 32.2703 62.8333 32.3909C64.1784 31.916 65.6259 31.66 67.1333 31.6645C74.2201 31.6856 79.9481 37.4649 79.9269 44.5728C79.9056 51.6807 74.1433 57.4258 67.0566 57.4046C64.6749 57.3975 62.4475 56.7387 60.5395 55.599C58.0447 58.1493 54.6932 59.7075 51.0106 59.6966C47.1826 59.6852 43.721 57.9813 41.2153 55.2348C39.0893 56.554 36.5867 57.3137 33.9083 57.3058C26.2311 57.2829 20.0259 50.9783 20.0489 43.2243C20.072 35.4702 26.3147 29.2019 33.992 29.2248C35.1515 29.2283 36.2772 29.3765 37.3531 29.6499C38.3432 23.9518 43.8397 19.708 50.346 19.9181Z" fill="url(#paint1_linear_29_194)"/>
<defs>
<linearGradient id="paint0_linear_29_194" x1="48.399" y1="65.358" x2="46.968" y2="73.229" gradientUnits="userSpaceOnUse">
<stop stop-color="#1976D2"/>
<stop offset="1" stop-color="#90CAF9"/>
</linearGradient>
<linearGradient id="paint1_linear_29_194" x1="45.3485" y1="24.9764" x2="49.8116" y2="56.3602" gradientUnits="userSpaceOnUse">
<stop stop-color="#E3F2FD"/>
<stop offset="1" stop-color="#E3F2FD"/>
</linearGradient>
</defs>
</svg>
