<svg width="100" height="100" viewBox="0 0 100 100" fill="none" xmlns="http://www.w3.org/2000/svg">
<path d="M53 38.5C53 48.7173 44.4934 57 34 57C23.5066 57 15 48.7173 15 38.5C15 28.2827 23.5066 20 34 20C44.4934 20 53 28.2827 53 38.5Z" fill="url(#paint0_linear_14_86)"/>
<path d="M48.3985 76.3572C49.4852 76.5548 49.7086 80.3364 49.4337 81.8484C49.1587 83.3602 48.0545 84.4257 46.9678 84.2283C45.8811 84.0307 45.2232 82.6446 45.4981 81.1326C45.773 79.6207 47.3118 76.1603 48.3985 76.3572ZM35.3985 72.3572C36.4852 72.5548 36.7086 76.3364 36.4337 77.8484C36.1587 79.3602 35.0545 80.4257 33.9678 80.2283C32.8811 80.0307 32.2232 78.6446 32.4981 77.1326C32.773 75.6207 34.3118 72.1603 35.3985 72.3572ZM61.3985 71.3572C62.4852 71.5548 62.7086 75.3364 62.4337 76.8484C62.1587 78.3602 61.0545 79.4257 59.9678 79.2283C58.8811 79.0307 58.2232 77.6446 58.4981 76.1326C58.773 74.6207 60.3118 71.1603 61.3985 71.3572Z" fill="url(#paint1_linear_14_86)"/>
<path opacity="0.9" fill-rule="evenodd" clip-rule="evenodd" d="M50.3269 31.0903C56.9374 31.3168 62.1609 36.7127 61.9942 43.1427C61.991 43.264 61.9844 43.3847 61.9775 43.505C63.233 43.0317 64.5843 42.7764 65.9914 42.7806C72.6047 42.8004 77.9486 48.552 77.9277 55.6278C77.9066 62.7038 72.5284 68.4241 65.9149 68.4045C63.6925 68.3979 61.6146 67.742 59.8343 66.608C57.5055 69.1481 54.3766 70.7002 50.9393 70.6899C47.3668 70.6792 44.1371 68.9834 41.7992 66.2496C39.8149 67.5633 37.4791 68.3197 34.9795 68.3122C27.8151 68.2907 22.0257 62.0161 22.0486 54.297C22.0716 46.5778 27.8984 40.3371 35.0629 40.3583C36.1452 40.3615 37.1961 40.5086 38.2003 40.7807C39.1253 35.1079 44.2551 30.8823 50.3269 31.0903Z" fill="url(#paint2_linear_14_86)"/>
<defs>
<linearGradient id="paint0_linear_14_86" x1="15" y1="22.4909" x2="53.2821" y2="54.1682" gradientUnits="userSpaceOnUse">
<stop stop-color="#FFEB3B" stop-opacity="0.5"/>
<stop offset="1" stop-color="#FFB300"/>
</linearGradient>
<linearGradient id="paint1_linear_14_86" x1="48.3988" y1="76.3566" x2="46.9677" y2="84.2275" gradientUnits="userSpaceOnUse">
<stop stop-color="#1976D2"/>
<stop offset="1" stop-color="#90CAF9"/>
</linearGradient>
<linearGradient id="paint2_linear_14_86" x1="45.6622" y1="36.1268" x2="50.3946" y2="67.2818" gradientUnits="userSpaceOnUse">
<stop stop-color="#E3F2FD"/>
<stop offset="1" stop-color="#E3F2FD"/>
</linearGradient>
</defs>
</svg>
