<svg width="100" height="100" viewBox="0 0 100 100" fill="none" xmlns="http://www.w3.org/2000/svg">
<path d="M53 38.5C53 48.7173 44.4934 57 34 57C23.5066 57 15 48.7173 15 38.5C15 28.2827 23.5066 20 34 20C44.4934 20 53 28.2827 53 38.5Z" fill="url(#paint0_linear_29_242)"/>
<path fill-rule="evenodd" clip-rule="evenodd" d="M48.3985 76.3574C49.485 76.555 49.7083 80.336 49.4336 81.8486C49.1587 83.3606 48.0545 84.426 46.9678 84.2285C45.8811 84.0309 45.2232 82.6448 45.4981 81.1328C45.7736 79.6203 47.312 76.1608 48.3985 76.3574ZM35.3985 72.3574C36.485 72.555 36.7083 76.336 36.4336 77.8486C36.1587 79.3606 35.0545 80.426 33.9678 80.2285C32.8811 80.0309 32.2232 78.6448 32.4981 77.1328C32.7736 75.6203 34.312 72.1608 35.3985 72.3574ZM61.3985 71.3574C62.485 71.555 62.7083 75.336 62.4336 76.8486C62.1587 78.3606 61.0545 79.426 59.9678 79.2285C58.8811 79.0309 58.2232 77.6448 58.4981 76.1328C58.7736 74.6203 60.312 71.1608 61.3985 71.3574Z" fill="url(#paint1_linear_29_242)"/>
<path opacity="0.9" fill-rule="evenodd" clip-rule="evenodd" d="M50.3269 31.09C56.9374 31.3165 62.1609 36.7125 61.9942 43.1424C61.991 43.2637 61.9853 43.3845 61.9784 43.5047C63.2337 43.0317 64.5847 42.7761 65.9914 42.7803C72.6048 42.8001 77.9488 48.5525 77.9277 55.6285C77.9065 62.7043 72.5283 68.4248 65.9149 68.4052C63.6925 68.3986 61.6147 67.7418 59.8343 66.6078C57.5054 69.1479 54.3767 70.6999 50.9393 70.6897C47.367 70.679 44.1371 68.9839 41.7992 66.2503C39.815 67.5639 37.479 68.3204 34.9795 68.3129C27.815 68.2914 22.0256 62.016 22.0486 54.2968C22.0716 46.5775 27.8984 40.3368 35.0629 40.358C36.1452 40.3612 37.1961 40.5084 38.2003 40.7804C39.1254 35.1078 44.2552 30.882 50.3269 31.09Z" fill="url(#paint2_linear_29_242)"/>
<defs>
<linearGradient id="paint0_linear_29_242" x1="15" y1="22.4909" x2="53.2821" y2="54.1682" gradientUnits="userSpaceOnUse">
<stop stop-color="#E3B5F8"/>
<stop offset="1" stop-color="#060333" stop-opacity="0.5"/>
</linearGradient>
<linearGradient id="paint1_linear_29_242" x1="48.3988" y1="76.3566" x2="46.9677" y2="84.2275" gradientUnits="userSpaceOnUse">
<stop stop-color="#1976D2"/>
<stop offset="1" stop-color="#90CAF9"/>
</linearGradient>
<linearGradient id="paint2_linear_29_242" x1="45.6622" y1="36.1265" x2="50.3946" y2="67.2815" gradientUnits="userSpaceOnUse">
<stop stop-color="#E3F2FD"/>
<stop offset="1" stop-color="#E3F2FD"/>
</linearGradient>
</defs>
</svg>
