<svg width="100" height="100" viewBox="0 0 100 100" fill="none" xmlns="http://www.w3.org/2000/svg">
<path d="M56.7234 50.3144L48.3546 62.262L58 62.8908L38.8511 86L45.9433 71.3799H38L45.234 50L56.7234 50.3144Z" fill="url(#paint0_linear_15_157)"/>
<path opacity="0.95" d="M50.3456 19.9183C57.4292 20.1472 63.0279 25.5688 62.8505 32.0277C62.8472 32.1493 62.8403 32.2704 62.8329 32.391C64.178 31.916 65.6263 31.6599 67.1337 31.6644C74.2202 31.6858 79.9478 37.4649 79.9267 44.5726C79.9053 51.6804 74.1433 57.4258 67.0566 57.4046C64.675 57.3975 62.447 56.7386 60.539 55.599C58.0442 58.1491 54.6931 59.7075 51.0107 59.6966C47.1826 59.6852 43.7205 57.9813 41.2148 55.2347C39.0889 56.5539 36.5864 57.314 33.9081 57.306C26.231 57.2831 20.0258 50.9779 20.0488 43.224C20.0721 35.47 26.3149 29.2021 33.9921 29.225C35.1516 29.2284 36.2776 29.3764 37.3535 29.6498C38.3436 23.9518 43.8395 19.7084 50.3456 19.9183Z" fill="url(#paint1_linear_15_157)"/>
<defs>
<linearGradient id="paint0_linear_15_157" x1="48" y1="50" x2="48" y2="86" gradientUnits="userSpaceOnUse">
<stop stop-color="#F4DC0B" stop-opacity="0.5"/>
<stop offset="1" stop-color="#FFB300"/>
</linearGradient>
<linearGradient id="paint1_linear_15_157" x1="45.3484" y1="24.9767" x2="49.8115" y2="56.3605" gradientUnits="userSpaceOnUse">
<stop stop-color="#E3F2FD"/>
<stop offset="1" stop-color="#D9D9D9"/>
</linearGradient>
</defs>
</svg>
