<svg width="100" height="100" viewBox="0 0 100 100" fill="none" xmlns="http://www.w3.org/2000/svg">
<path d="M56.7234 50.3144L48.3546 62.262L58 62.8908L38.8511 86L45.9433 71.3799H38L45.234 50L56.7234 50.3144Z" fill="url(#paint0_linear_29_216)"/>
<path opacity="0.95" fill-rule="evenodd" clip-rule="evenodd" d="M50.3456 19.9173C57.4289 20.1462 63.0285 25.5681 62.8515 32.0267C62.8482 32.1484 62.8403 32.2703 62.833 32.391C64.178 31.916 65.6263 31.659 67.1337 31.6634C74.2202 31.6848 79.9477 37.465 79.9267 44.5726C79.9053 51.6804 74.1432 57.4248 67.0566 57.4037C64.675 57.3965 62.448 56.7376 60.54 55.598C58.0452 58.1483 54.6933 59.7065 51.0107 59.6957C47.1828 59.6842 43.7215 57.9811 41.2158 55.2347C39.0899 56.5539 36.5864 57.313 33.9081 57.305C26.231 57.282 20.0259 50.9779 20.0488 43.224C20.0721 35.47 26.3149 29.2021 33.9921 29.225C35.1515 29.2284 36.2776 29.3754 37.3535 29.6488C38.3441 23.9514 43.8399 19.7074 50.3456 19.9173Z" fill="url(#paint1_linear_29_216)"/>
<defs>
<linearGradient id="paint0_linear_29_216" x1="48" y1="50" x2="48" y2="86" gradientUnits="userSpaceOnUse">
<stop stop-color="#F4DC0B" stop-opacity="0.5"/>
<stop offset="1" stop-color="#FFB300"/>
</linearGradient>
<linearGradient id="paint1_linear_29_216" x1="45.3484" y1="24.9761" x2="49.8115" y2="56.3599" gradientUnits="userSpaceOnUse">
<stop stop-color="#E3F2FD"/>
<stop offset="1" stop-color="#D9D9D9"/>
</linearGradient>
</defs>
</svg>
