<svg width="100" height="100" viewBox="0 0 100 100" fill="none" xmlns="http://www.w3.org/2000/svg">
<path d="M34.6993 26.7273L35.7043 25H37.8056L40.2724 28.9091L41.9169 26.0909H44.0183L44.9319 27.8182L42.2824 32.6364L43.1047 34L44.5664 31.7273H46.6678L47.7641 33.4545L46.6678 35.6364H52.3322L51.2359 33.4545L52.3322 31.7273H54.1595L55.6213 34L56.5349 32.6364L53.794 27.8182L54.7076 26.0909H56.9003L58.6362 28.9091L60.9203 25H63.2043L64.2093 26.7273L61.7425 31H65.3056L66.2193 32.6364L65.3056 34.5455H59.7326L58.6362 36.1818H61.7425L62.8389 37.8182L61.7425 39.7273H59.2757L62.1993 44.9091L63.6611 42.7273H65.3056L66.5847 44.4545L65.3056 47.0909H66.9502L69.5997 42.2727H71.701L72.7973 44.0909L71.0615 47.0909H75.7209L77 48.9091L75.7209 51H71.0615L72.7973 53.7273L71.701 55.6364H69.5997L66.9502 51H65.3056L66.5847 53.3636L65.6711 55.1818H63.6611L62.1993 53.3636L59.2757 58.3636H61.7425L62.8389 59.9091L61.7425 61.9091H58.6362L59.7326 63.5455H65.3056L66.2193 65.1818L65.3056 67.0909H61.7425L64.2093 71.0909L63.2043 73H60.9203L58.6362 69.1818L56.9003 71.8182H54.7076L53.794 70.0909L56.5349 65.1818L55.6213 63.9091L54.1595 66.2727H52.3322L51.2359 64.3636L52.3322 62.2727H46.6678L47.7641 64.3636L46.6678 66.2727H44.5664L43.1047 63.5455L42.2824 65.1818L44.9319 70.0909L44.0183 71.8182H41.9169L40.2724 69.1818L37.8056 73H35.7043L34.608 71.0909L36.9834 67.0909H33.603L32.598 65.1818L33.603 63.5455H38.9934L39.9983 61.9091H36.9834L36.0698 59.9091L36.9834 58.3636H39.4502L36.5266 53.3636L35.2475 55.1818H33.1462L32.2326 53.3636L33.603 51H31.7757L29.1262 55.6364H27.1163L26.1113 53.7273L27.6645 51H23.005L22 48.9091L23.005 47.0909H27.6645L26.1113 44.0909L27.1163 42.2727H29.1262L31.7757 47.0909H33.603L32.2326 44.4545L33.1462 42.7273H35.2475L36.5266 44.9091L39.4502 39.7273H36.9834L36.0698 37.8182L36.9834 36.1818H39.9983L38.9934 34.5455H33.603L32.598 32.6364L33.603 31H36.9834L34.6993 26.7273Z" fill="url(#paint0_radial_17_181)"/>
<defs>
<radialGradient id="paint0_radial_17_181" cx="0" cy="0" r="1" gradientUnits="userSpaceOnUse" gradientTransform="translate(49.5 49) rotate(90) scale(24 27.5)">
<stop offset="0.359375" stop-color="#D1EFFB"/>
<stop offset="0.617788" stop-color="#8DDAFF"/>
<stop offset="0.953125" stop-color="#13ABF8"/>
</radialGradient>
</defs>
</svg>
