<svg width="100" height="100" viewBox="0 0 100 100" fill="none" xmlns="http://www.w3.org/2000/svg">
<path opacity="0.95" fill-rule="evenodd" clip-rule="evenodd" d="M50.346 19.9181C57.4296 20.147 63.0284 25.5688 62.851 32.0277C62.8476 32.1493 62.8407 32.2704 62.8333 32.3909C64.1784 31.916 65.6259 31.66 67.1333 31.6645C74.2201 31.6856 79.9481 37.4649 79.9269 44.5728C79.9056 51.6807 74.1433 57.4258 67.0566 57.4046C64.6749 57.3975 62.4475 56.7387 60.5395 55.599C58.0447 58.1493 54.6932 59.7075 51.0106 59.6966C47.1826 59.6852 43.721 57.9813 41.2153 55.2348C39.0893 56.554 36.5867 57.3137 33.9083 57.3058C26.2311 57.2829 20.0259 50.9783 20.0489 43.2243C20.072 35.4702 26.3147 29.2019 33.992 29.2248C35.1515 29.2283 36.2772 29.3765 37.3531 29.6499C38.3432 23.9518 43.8397 19.708 50.346 19.9181Z" fill="url(#paint0_linear_29_55)"/>
<path d="M26 68.8686C45.7944 80.6051 51.7502 55.924 75 68.8686M26 79.7353C45.7944 91.4717 51.7502 66.7907 75 79.7353" stroke="#1976D2" stroke-width="2" stroke-linecap="round"/>
<defs>
<linearGradient id="paint0_linear_29_55" x1="45.3485" y1="24.9764" x2="49.8116" y2="56.3602" gradientUnits="userSpaceOnUse">
<stop stop-color="#E3F2FD"/>
<stop offset="1" stop-color="#E3F2FD"/>
</linearGradient>
</defs>
</svg>
