<svg width="100" height="100" viewBox="0 0 100 100" fill="none" xmlns="http://www.w3.org/2000/svg">
<path opacity="0.95" fill-rule="evenodd" clip-rule="evenodd" d="M50.346 19.9178C57.4296 20.1467 63.0284 25.5685 62.851 32.0274C62.8476 32.1493 62.8407 32.2707 62.8333 32.3916C64.1784 31.9166 65.6258 31.6597 67.1333 31.6642C74.2201 31.6853 79.9481 37.4646 79.9269 44.5725C79.9057 51.6805 74.1434 57.4255 67.0566 57.4043C64.6749 57.3972 62.4475 56.7384 60.5395 55.5987C58.0446 58.1491 54.6932 59.7072 51.0106 59.6963C47.1827 59.6849 43.721 57.9818 41.2153 55.2354C39.0894 56.5546 36.5866 57.3134 33.9083 57.3055C26.231 57.2826 20.0258 50.9781 20.0489 43.224C20.072 35.4699 26.3147 29.2026 33.992 29.2255C35.1515 29.229 36.2772 29.3762 37.3531 29.6496C38.3433 23.9516 43.8398 19.7077 50.346 19.9178Z" fill="url(#paint0_linear_29_209)"/>
<path d="M26 68.8686C45.7944 80.6051 51.7502 55.924 75 68.8686M26 79.7353C45.7944 91.4717 51.7502 66.7907 75 79.7353" stroke="#1976D2" stroke-width="2" stroke-linecap="round"/>
<defs>
<linearGradient id="paint0_linear_29_209" x1="45.3485" y1="24.9761" x2="49.8116" y2="56.3599" gradientUnits="userSpaceOnUse">
<stop stop-color="#E3F2FD"/>
<stop offset="1" stop-color="#E3F2FD"/>
</linearGradient>
</defs>
</svg>
